<?xml version="1.0" encoding="UTF-8"?>
<!DOCTYPE svg PUBLIC "-//W3C//DTD SVG 1.1//EN" "http://www.w3.org/Graphics/SVG/1.1/DTD/svg11.dtd">
<svg xmlns="http://www.w3.org/2000/svg" version="1.1" width="256px" height="256px" style="shape-rendering:geometricPrecision; text-rendering:geometricPrecision; image-rendering:optimizeQuality; fill-rule:evenodd; clip-rule:evenodd" xmlns:xlink="http://www.w3.org/1999/xlink">
<g><path style="opacity:1" fill="#fe9500" d="M 34.5,-0.5 C 107.5,-0.5 180.5,-0.5 253.5,-0.5C 253.833,0.5 254.5,1.16667 255.5,1.5C 255.5,74.5 255.5,147.5 255.5,220.5C 252.282,240.052 240.948,251.718 221.5,255.5C 158.5,255.5 95.5,255.5 32.5,255.5C 14.5,251.5 3.5,240.5 -0.5,222.5C -0.5,159.5 -0.5,96.5 -0.5,33.5C 3.28159,14.0518 14.9483,2.71843 34.5,-0.5 Z"/></g>
<g><path style="opacity:1" fill="#000000" d="M 30.5,7.5 C 84.8333,7.5 139.167,7.5 193.5,7.5C 193.333,21.1707 193.5,34.8374 194,48.5C 194.833,52 197,54.1667 200.5,55C 216.163,55.4999 231.83,55.6666 247.5,55.5C 247.667,111.834 247.5,168.168 247,224.5C 243.5,236 236,243.5 224.5,247C 159.833,247.667 95.1667,247.667 30.5,247C 19,243.5 11.5,236 8,224.5C 7.33333,159.833 7.33333,95.1667 8,30.5C 11.684,18.9837 19.184,11.3171 30.5,7.5 Z"/></g>
<g><path style="opacity:1" fill="#ffbd7e" d="M 240.5,8.5 C 239.167,8.5 237.833,8.5 236.5,8.5C 236.5,10.1667 236.5,11.8333 236.5,13.5C 237.833,13.5 239.167,13.5 240.5,13.5C 239.081,14.4511 237.415,14.7845 235.5,14.5C 235.5,12.1667 235.5,9.83333 235.5,7.5C 237.415,7.21552 239.081,7.54885 240.5,8.5 Z"/></g>
<g><path style="opacity:1" fill="#fff9f5" d="M 240.5,8.5 C 240.5,10.1667 240.5,11.8333 240.5,13.5C 239.167,13.5 237.833,13.5 236.5,13.5C 236.5,11.8333 236.5,10.1667 236.5,8.5C 237.833,8.5 239.167,8.5 240.5,8.5 Z"/></g>
<g><path style="opacity:1" fill="#fff9f5" d="M 206.5,10.5 C 224.762,6.92961 232.262,14.2629 229,32.5C 226.456,39.1908 221.623,41.8574 214.5,40.5C 211.579,40.4765 208.746,40.1432 206,39.5C 205.194,29.756 205.361,20.0893 206.5,10.5 Z"/></g>
<g><path style="opacity:1" fill="#ff9713" d="M 210.5,15.5 C 224.418,14.7633 228.418,20.7633 222.5,33.5C 218.712,35.2558 214.712,35.9225 210.5,35.5C 210.5,28.8333 210.5,22.1667 210.5,15.5 Z"/></g>
<g><path style="opacity:1" fill="#ffca9a" d="M 240.5,17.5 C 239.167,17.5 237.833,17.5 236.5,17.5C 236.826,26.3494 236.493,35.0161 235.5,43.5C 235.5,34.5 235.5,25.5 235.5,16.5C 237.415,16.2155 239.081,16.5489 240.5,17.5 Z"/></g>
<g><path style="opacity:1" fill="#fff9f4" d="M 240.5,17.5 C 240.666,27.1724 240.5,36.8391 240,46.5C 239.578,48.4257 238.411,49.4257 236.5,49.5C 234.5,49.5 232.5,49.5 230.5,49.5C 230.5,48.1667 230.5,46.8333 230.5,45.5C 232.698,45.8799 234.365,45.2132 235.5,43.5C 236.493,35.0161 236.826,26.3494 236.5,17.5C 237.833,17.5 239.167,17.5 240.5,17.5 Z"/></g>
<g><path style="opacity:1" fill="#fbfbfb" d="M 92.5,42.5 C 96.2908,57.7177 90.2908,65.3843 74.5,65.5C 63.0202,59.2189 60.8536,50.5523 68,39.5C 76.8739,32.9065 85.0405,33.9065 92.5,42.5 Z"/></g>
<g><path style="opacity:1" fill="#343434" d="M 92.5,42.5 C 97.8951,46.14 100.562,51.3067 100.5,58C 99.5877,60.2508 98.5877,62.4175 97.5,64.5C 92.2671,65.3006 87.6004,67.3006 83.5,70.5C 80.0302,70.2549 77.0302,68.5883 74.5,65.5C 90.2908,65.3843 96.2908,57.7177 92.5,42.5 Z"/></g>
<g><path style="opacity:1" fill="#fdfdfd" d="M 164.5,53.5 C 165.854,57.6279 165.187,61.4613 162.5,65C 148.089,71.6605 133.256,76.1605 118,78.5C 117.308,79.0253 116.808,79.6919 116.5,80.5C 124.282,90.3987 130.782,101.065 136,112.5C 139.667,117.167 143.333,121.833 147,126.5C 148.129,128.141 149.629,129.141 151.5,129.5C 158.869,137.419 167.869,142.752 178.5,145.5C 179.524,146.852 180.524,148.185 181.5,149.5C 183.681,157.477 180.681,161.644 172.5,162C 168.106,160.591 163.772,159.091 159.5,157.5C 146.714,150.389 135.714,141.056 126.5,129.5C 125.579,127.731 124.412,126.065 123,124.5C 110.14,126.609 97.3062,130.776 84.5,137C 77.1605,142.839 72.4938,150.339 70.5,159.5C 68.1489,161.229 65.4822,161.896 62.5,161.5C 58.2278,159.725 55.5612,156.558 54.5,152C 55.7829,144.69 58.7829,138.19 63.5,132.5C 67.2721,128.774 71.2721,125.274 75.5,122C 84.019,117.881 92.6856,114.047 101.5,110.5C 97.721,105.248 93.721,100.248 89.5,95.5C 87.487,93.5026 85.1537,91.836 82.5,90.5C 75.4856,91.3461 68.6522,91.3461 62,90.5C 57.1144,88.8936 52.281,87.227 47.5,85.5C 44.7376,83.2753 41.7376,81.2753 38.5,79.5C 32.2983,73.9095 32.6316,68.4095 39.5,63C 41.5,62.3333 43.5,62.3333 45.5,63C 56.4316,71.4202 68.765,74.7535 82.5,73C 83.2524,72.3292 83.5858,71.4959 83.5,70.5C 87.6004,67.3006 92.2671,65.3006 97.5,64.5C 115.925,62.3312 134.591,57.4978 153.5,50C 158.181,48.5189 161.848,49.6856 164.5,53.5 Z"/></g>
<g><path style="opacity:1" fill="#ffc187" d="M 230.5,45.5 C 230.5,46.8333 230.5,48.1667 230.5,49.5C 232.5,49.5 234.5,49.5 236.5,49.5C 234.393,50.4682 232.059,50.8016 229.5,50.5C 229.216,48.5853 229.549,46.9187 230.5,45.5 Z"/></g>
<g><path style="opacity:1" fill="#343434" d="M 164.5,53.5 C 170.172,55.9885 172.339,60.3218 171,66.5C 170.215,68.286 169.049,69.786 167.5,71C 159.508,73.4412 151.675,76.2746 144,79.5C 136.965,80.5458 129.798,82.2125 122.5,84.5C 130.617,95.0683 137.45,106.402 143,118.5C 146.104,122.085 148.937,125.752 151.5,129.5C 149.629,129.141 148.129,128.141 147,126.5C 143.333,121.833 139.667,117.167 136,112.5C 130.782,101.065 124.282,90.3987 116.5,80.5C 116.808,79.6919 117.308,79.0253 118,78.5C 133.256,76.1605 148.089,71.6605 162.5,65C 165.187,61.4613 165.854,57.6279 164.5,53.5 Z"/></g>
<g><path style="opacity:1" fill="#353535" d="M 47.5,85.5 C 52.281,87.227 57.1144,88.8936 62,90.5C 68.6522,91.3461 75.4856,91.3461 82.5,90.5C 85.1537,91.836 87.487,93.5026 89.5,95.5C 73.807,97.0727 59.807,93.7393 47.5,85.5 Z"/></g>
<g><path style="opacity:1" fill="#333333" d="M 126.5,129.5 C 118.606,131.642 110.606,133.809 102.5,136C 88.093,140.533 79.4263,150.2 76.5,165C 70.7357,167.768 66.069,166.602 62.5,161.5C 65.4822,161.896 68.1489,161.229 70.5,159.5C 72.4938,150.339 77.1605,142.839 84.5,137C 97.3062,130.776 110.14,126.609 123,124.5C 124.412,126.065 125.579,127.731 126.5,129.5 Z"/></g>
<g><path style="opacity:1" fill="#fbfbfb" d="M 226.5,144.5 C 231.266,145.158 232.6,147.658 230.5,152C 226.822,154.811 224.489,153.978 223.5,149.5C 223.757,147.308 224.757,145.641 226.5,144.5 Z"/></g>
<g><path style="opacity:1" fill="#353535" d="M 181.5,149.5 C 186.057,150.557 188.723,153.39 189.5,158C 188.672,163.246 185.672,166.413 180.5,167.5C 173.841,165.755 167.507,163.255 161.5,160C 160.619,159.292 159.953,158.458 159.5,157.5C 163.772,159.091 168.106,160.591 172.5,162C 180.681,161.644 183.681,157.477 181.5,149.5 Z"/></g>
<g><path style="opacity:1" fill="#f8f8f8" d="M 213.5,158.5 C 215.355,158.272 216.188,158.939 216,160.5C 213.192,161.86 212.359,161.193 213.5,158.5 Z"/></g>
<g><path style="opacity:1" fill="#dfdfdf" d="M 230.5,164.5 C 235.386,165.857 235.553,167.523 231,169.5C 229.212,167.977 229.045,166.31 230.5,164.5 Z"/></g>
<g><path style="opacity:1" fill="#fefefe" d="M 215.5,175.5 C 224.833,175.5 234.167,175.5 243.5,175.5C 243.5,190.167 243.5,204.833 243.5,219.5C 234.5,219.5 225.5,219.5 216.5,219.5C 216.685,204.816 216.351,190.149 215.5,175.5 Z"/></g>
<g><path style="opacity:1" fill="#e3e3e3" d="M 80.5,195.5 C 82.256,196.552 82.9227,198.219 82.5,200.5C 92.0267,200.018 94.6934,204.018 90.5,212.5C 87.562,213.575 84.562,213.741 81.5,213C 80.5251,207.259 80.1918,201.425 80.5,195.5 Z"/></g>
<g><path style="opacity:1" fill="#cccccc" d="M 94.5,195.5 C 95.5,195.5 96.5,195.5 97.5,195.5C 97.5,201.5 97.5,207.5 97.5,213.5C 96.5,213.5 95.5,213.5 94.5,213.5C 94.5,207.5 94.5,201.5 94.5,195.5 Z"/></g>
<g><path style="opacity:1" fill="#e2e2e2" d="M 36.5,197.5 C 46.7811,196.045 50.6144,200.378 48,210.5C 47.1667,211.333 46.3333,212.167 45.5,213C 42.1832,213.498 38.8499,213.665 35.5,213.5C 35.2175,208.073 35.5509,202.74 36.5,197.5 Z"/></g>
<g><path style="opacity:1" fill="#e2e2e2" d="M 126.5,197.5 C 127.5,197.5 128.5,197.5 129.5,197.5C 129.666,201.846 129.499,206.179 129,210.5C 126.103,213.231 122.603,214.231 118.5,213.5C 118.5,212.5 118.5,211.5 118.5,210.5C 121.119,210.768 123.619,210.435 126,209.5C 126.499,205.514 126.666,201.514 126.5,197.5 Z"/></g>
<g><path style="opacity:1" fill="#030303" d="M 38.5,200.5 C 45.2646,200.464 47.2646,203.631 44.5,210C 42.5273,210.495 40.5273,210.662 38.5,210.5C 38.5,207.167 38.5,203.833 38.5,200.5 Z"/></g>
<g><path style="opacity:1" fill="#dcdcdc" d="M 53.5,200.5 C 59.4218,199.278 62.4218,201.611 62.5,207.5C 62.6738,209.693 62.0071,211.527 60.5,213C 52.1454,215.152 48.9787,211.985 51,203.5C 52.045,202.627 52.8783,201.627 53.5,200.5 Z"/></g>
<g><path style="opacity:1" fill="#d5d5d5" d="M 74.5,200.5 C 75.5,200.5 76.5,200.5 77.5,200.5C 77.6653,204.182 77.4986,207.848 77,211.5C 73.3333,214.167 69.6667,214.167 66,211.5C 65.5017,208.183 65.335,204.85 65.5,201.5C 66.5,201.5 67.5,201.5 68.5,201.5C 68.5,204.5 68.5,207.5 68.5,210.5C 70.5,210.5 72.5,210.5 74.5,210.5C 74.5,207.167 74.5,203.833 74.5,200.5 Z"/></g>
<g><path style="opacity:1" fill="#e6e6e6" d="M 102.5,200.5 C 109.468,198.971 112.135,201.471 110.5,208C 100.132,209.35 100.465,210.184 111.5,210.5C 111.5,211.5 111.5,212.5 111.5,213.5C 107.894,213.789 104.394,213.456 101,212.5C 99.994,208.198 100.494,204.198 102.5,200.5 Z"/></g>
<g><path style="opacity:1" fill="#d4d4d4" d="M 141.5,200.5 C 142.5,200.5 143.5,200.5 144.5,200.5C 144.665,203.85 144.498,207.183 144,210.5C 142.704,212.815 140.704,213.815 138,213.5C 135.966,213.646 134.299,212.98 133,211.5C 131.684,208.312 131.184,204.978 131.5,201.5C 132.5,201.5 133.5,201.5 134.5,201.5C 134.336,204.187 134.503,206.854 135,209.5C 137.041,210.423 139.208,210.756 141.5,210.5C 141.5,207.167 141.5,203.833 141.5,200.5 Z"/></g>
<g><path style="opacity:1" fill="#d3d3d3" d="M 147.5,200.5 C 153.29,200.096 158.956,200.596 164.5,202C 166.183,205.62 166.85,209.454 166.5,213.5C 165.5,213.5 164.5,213.5 163.5,213.5C 163.664,210.813 163.497,208.146 163,205.5C 161.556,203.845 159.722,203.178 157.5,203.5C 157.5,206.833 157.5,210.167 157.5,213.5C 156.5,213.5 155.5,213.5 154.5,213.5C 154.5,210.167 154.5,206.833 154.5,203.5C 152.833,203.5 151.167,203.5 149.5,203.5C 149.5,206.833 149.5,210.167 149.5,213.5C 148.5,213.5 147.5,213.5 146.5,213.5C 146.231,209.069 146.564,204.735 147.5,200.5 Z"/></g>
<g><path style="opacity:1" fill="#dbdbdb" d="M 171.5,200.5 C 174.32,200.248 176.986,200.748 179.5,202C 182.934,210.353 180.268,214.186 171.5,213.5C 171.5,215.167 171.5,216.833 171.5,218.5C 170.5,218.5 169.5,218.5 168.5,218.5C 168.334,213.489 168.501,208.489 169,203.5C 169.698,202.309 170.531,201.309 171.5,200.5 Z"/></g>
<g><path style="opacity:1" fill="#0a0a0a" d="M 54.5,203.5 C 59.8943,202.554 61.5609,204.554 59.5,209.5C 57.604,210.466 55.604,210.799 53.5,210.5C 53.298,208.05 53.6314,205.717 54.5,203.5 Z"/></g>
<g><path style="opacity:1" fill="#020202" d="M 82.5,203.5 C 88.5,202.167 90.8333,204.5 89.5,210.5C 83.5,211.833 81.1667,209.5 82.5,203.5 Z"/></g>
<g><path style="opacity:1" fill="#000000" d="M 103.5,203.5 C 105.75,203.181 107.75,203.681 109.5,205C 107.317,206.694 104.984,206.861 102.5,205.5C 102.863,204.817 103.196,204.15 103.5,203.5 Z"/></g>
<g><path style="opacity:1" fill="#070707" d="M 172.5,203.5 C 177.894,202.554 179.561,204.554 177.5,209.5C 175.604,210.466 173.604,210.799 171.5,210.5C 171.298,208.05 171.631,205.717 172.5,203.5 Z"/></g>
</svg>
